<svg width="192" height="35" viewBox="0 0 192 35" fill="none" xmlns="http://www.w3.org/2000/svg">
<path d="M18.2227 25.2021C17.5 26.2373 16.4893 27.0137 15.1904 27.5312C13.9014 28.0391 12.3975 28.293 10.6787 28.293C8.94043 28.293 7.39746 27.8877 6.0498 27.0771C4.70215 26.2568 3.65723 25.0947 2.91504 23.5908C2.18262 22.0869 1.80664 20.3438 1.78711 18.3613V16.501C1.78711 13.2881 2.53418 10.7979 4.02832 9.03027C5.53223 7.2627 7.6416 6.37891 10.3564 6.37891C12.583 6.37891 14.375 6.9502 15.7324 8.09277C17.0898 9.22559 17.9199 10.8369 18.2227 12.9268H15.4102C14.8828 10.1045 13.2031 8.69336 10.3711 8.69336C8.48633 8.69336 7.05566 9.35742 6.0791 10.6855C5.1123 12.0039 4.62402 13.918 4.61426 16.4277V18.1709C4.61426 20.5635 5.16113 22.4678 6.25488 23.8838C7.34863 25.29 8.82812 25.9932 10.6934 25.9932C11.748 25.9932 12.6709 25.876 13.4619 25.6416C14.2529 25.4072 14.9072 25.0117 15.4248 24.4551V19.665H10.4883V17.3799H18.2227V25.2021ZM30.1611 14.582C29.751 14.5137 29.3066 14.4795 28.8281 14.4795C27.0508 14.4795 25.8447 15.2363 25.21 16.75V28H22.5V12.1504H25.1367L25.1807 13.9814C26.0693 12.5654 27.3291 11.8574 28.96 11.8574C29.4873 11.8574 29.8877 11.9258 30.1611 12.0625V14.582ZM38.9502 28.293C36.8018 28.293 35.0537 27.5898 33.7061 26.1836C32.3584 24.7676 31.6846 22.8779 31.6846 20.5146V20.0166C31.6846 18.4443 31.9824 17.043 32.5781 15.8125C33.1836 14.5723 34.0234 13.6055 35.0977 12.9121C36.1816 12.209 37.3535 11.8574 38.6133 11.8574C40.6738 11.8574 42.2754 12.5361 43.418 13.8936C44.5605 15.251 45.1318 17.1943 45.1318 19.7236V20.8516H34.3945C34.4336 22.4141 34.8877 23.6787 35.7568 24.6455C36.6357 25.6025 37.749 26.0811 39.0967 26.0811C40.0537 26.0811 40.8643 25.8857 41.5283 25.4951C42.1924 25.1045 42.7734 24.5869 43.2715 23.9424L44.9268 25.2314C43.5986 27.2725 41.6064 28.293 38.9502 28.293ZM38.6133 14.084C37.5195 14.084 36.6016 14.4844 35.8594 15.2852C35.1172 16.0762 34.6582 17.1895 34.4824 18.625H42.4219V18.4199C42.3438 17.043 41.9727 15.9785 41.3086 15.2266C40.6445 14.4648 39.7461 14.084 38.6133 14.084ZM54.8584 28.293C52.71 28.293 50.9619 27.5898 49.6143 26.1836C48.2666 24.7676 47.5928 22.8779 47.5928 20.5146V20.0166C47.5928 18.4443 47.8906 17.043 48.4863 15.8125C49.0918 14.5723 49.9316 13.6055 51.0059 12.9121C52.0898 12.209 53.2617 11.8574 54.5215 11.8574C56.582 11.8574 58.1836 12.5361 59.3262 13.8936C60.4688 15.251 61.04 17.1943 61.04 19.7236V20.8516H50.3027C50.3418 22.4141 50.7959 23.6787 51.665 24.6455C52.5439 25.6025 53.6572 26.0811 55.0049 26.0811C55.9619 26.0811 56.7725 25.8857 57.4365 25.4951C58.1006 25.1045 58.6816 24.5869 59.1797 23.9424L60.835 25.2314C59.5068 27.2725 57.5146 28.293 54.8584 28.293ZM54.5215 14.084C53.4277 14.084 52.5098 14.4844 51.7676 15.2852C51.0254 16.0762 50.5664 17.1895 50.3906 18.625H58.3301V18.4199C58.252 17.043 57.8809 15.9785 57.2168 15.2266C56.5527 14.4648 55.6543 14.084 54.5215 14.084ZM66.7529 12.1504L66.8408 14.1426C68.0518 12.6191 69.6338 11.8574 71.5869 11.8574C74.9365 11.8574 76.626 13.7471 76.6553 17.5264V28H73.9453V17.5117C73.9355 16.3691 73.6719 15.5244 73.1543 14.9775C72.6465 14.4307 71.8506 14.1572 70.7666 14.1572C69.8877 14.1572 69.1162 14.3916 68.4521 14.8604C67.7881 15.3291 67.2705 15.9443 66.8994 16.7061V28H64.1895V12.1504H66.7529ZM89.5166 28V14.2451H87.0117V12.1504H89.5166V10.5244C89.5166 8.8252 89.9707 7.51172 90.8789 6.58398C91.7871 5.65625 93.0713 5.19238 94.7314 5.19238C95.3564 5.19238 95.9766 5.27539 96.5918 5.44141L96.4453 7.63867C95.9863 7.55078 95.498 7.50684 94.9805 7.50684C94.1016 7.50684 93.4229 7.76563 92.9443 8.2832C92.4658 8.79102 92.2266 9.52344 92.2266 10.4805V12.1504H95.6104V14.2451H92.2266V28H89.5166ZM97.8955 19.9287C97.8955 18.376 98.1982 16.9795 98.8037 15.7393C99.4189 14.499 100.269 13.542 101.353 12.8682C102.446 12.1943 103.691 11.8574 105.088 11.8574C107.246 11.8574 108.989 12.6045 110.317 14.0986C111.655 15.5928 112.324 17.5801 112.324 20.0605V20.251C112.324 21.7939 112.026 23.1807 111.431 24.4111C110.845 25.6318 110 26.584 108.896 27.2676C107.803 27.9512 106.543 28.293 105.117 28.293C102.969 28.293 101.226 27.5459 99.8877 26.0518C98.5596 24.5576 97.8955 22.5801 97.8955 20.1191V19.9287ZM100.62 20.251C100.62 22.0088 101.025 23.4199 101.836 24.4844C102.656 25.5488 103.75 26.0811 105.117 26.0811C106.494 26.0811 107.588 25.5439 108.398 24.4697C109.209 23.3857 109.614 21.8721 109.614 19.9287C109.614 18.1904 109.199 16.7842 108.369 15.71C107.549 14.626 106.455 14.084 105.088 14.084C103.75 14.084 102.671 14.6162 101.851 15.6807C101.03 16.7451 100.62 18.2686 100.62 20.251ZM123.384 14.582C122.974 14.5137 122.529 14.4795 122.051 14.4795C120.273 14.4795 119.067 15.2363 118.433 16.75V28H115.723V12.1504H118.359L118.403 13.9814C119.292 12.5654 120.552 11.8574 122.183 11.8574C122.71 11.8574 123.11 11.9258 123.384 12.0625V14.582ZM136.274 28H133.564V5.5H136.274V28ZM143.569 28H140.859V12.1504H143.569V28ZM140.64 7.94629C140.64 7.50684 140.771 7.13574 141.035 6.83301C141.309 6.53027 141.709 6.37891 142.236 6.37891C142.764 6.37891 143.164 6.53027 143.438 6.83301C143.711 7.13574 143.848 7.50684 143.848 7.94629C143.848 8.38574 143.711 8.75195 143.438 9.04492C143.164 9.33789 142.764 9.48438 142.236 9.48438C141.709 9.48438 141.309 9.33789 141.035 9.04492C140.771 8.75195 140.64 8.38574 140.64 7.94629ZM149.253 28V14.2451H146.748V12.1504H149.253V10.5244C149.253 8.8252 149.707 7.51172 150.615 6.58398C151.523 5.65625 152.808 5.19238 154.468 5.19238C155.093 5.19238 155.713 5.27539 156.328 5.44141L156.182 7.63867C155.723 7.55078 155.234 7.50684 154.717 7.50684C153.838 7.50684 153.159 7.76563 152.681 8.2832C152.202 8.79102 151.963 9.52344 151.963 10.4805V12.1504H155.347V14.2451H151.963V28H149.253ZM164.575 28.293C162.427 28.293 160.679 27.5898 159.331 26.1836C157.983 24.7676 157.31 22.8779 157.31 20.5146V20.0166C157.31 18.4443 157.607 17.043 158.203 15.8125C158.809 14.5723 159.648 13.6055 160.723 12.9121C161.807 12.209 162.979 11.8574 164.238 11.8574C166.299 11.8574 167.9 12.5361 169.043 13.8936C170.186 15.251 170.757 17.1943 170.757 19.7236V20.8516H160.02C160.059 22.4141 160.513 23.6787 161.382 24.6455C162.261 25.6025 163.374 26.0811 164.722 26.0811C165.679 26.0811 166.489 25.8857 167.153 25.4951C167.817 25.1045 168.398 24.5869 168.896 23.9424L170.552 25.2314C169.224 27.2725 167.231 28.293 164.575 28.293ZM164.238 14.084C163.145 14.084 162.227 14.4844 161.484 15.2852C160.742 16.0762 160.283 17.1895 160.107 18.625H168.047V18.4199C167.969 17.043 167.598 15.9785 166.934 15.2266C166.27 14.4648 165.371 14.084 164.238 14.084Z" fill="url(#paint0_linear_2_8)"/>
<circle cx="181" cy="25" r="3" fill="#254D0D"/>
<defs>
<linearGradient id="paint0_linear_2_8" x1="96" y1="0" x2="96" y2="35" gradientUnits="userSpaceOnUse">
<stop stop-color="#254D0D"/>
<stop offset="1" stop-color="#BFD05F" stop-opacity="0.63"/>
</linearGradient>
</defs>
</svg>
