<svg width="305" height="42" viewBox="0 0 305 42" fill="none" xmlns="http://www.w3.org/2000/svg">
<path d="M21.8848 20.2559V29.625C21.5684 30.0938 21.0645 30.6211 20.373 31.207C19.6816 31.7812 18.7266 32.2852 17.5078 32.7188C16.3008 33.1406 14.7422 33.3516 12.832 33.3516C11.2734 33.3516 9.83789 33.082 8.52539 32.543C7.22461 31.9922 6.09375 31.1953 5.13281 30.1523C4.18359 29.0977 3.44531 27.8203 2.91797 26.3203C2.40234 24.8086 2.14453 23.0977 2.14453 21.1875V19.2012C2.14453 17.291 2.36719 15.5859 2.8125 14.0859C3.26953 12.5859 3.9375 11.3145 4.81641 10.2715C5.69531 9.2168 6.77344 8.41992 8.05078 7.88086C9.32812 7.33008 10.793 7.05469 12.4453 7.05469C14.4023 7.05469 16.0371 7.39453 17.3496 8.07422C18.6738 8.74219 19.7051 9.66797 20.4434 10.8516C21.1934 12.0352 21.6738 13.3828 21.8848 14.8945H18.4922C18.3398 13.9687 18.0352 13.125 17.5781 12.3633C17.1328 11.6016 16.4941 10.9922 15.6621 10.5352C14.8301 10.0664 13.7578 9.83203 12.4453 9.83203C11.2617 9.83203 10.2363 10.0488 9.36914 10.4824C8.50195 10.916 7.78711 11.5371 7.22461 12.3457C6.66211 13.1543 6.24023 14.1328 5.95898 15.2812C5.68945 16.4297 5.55469 17.7246 5.55469 19.166V21.1875C5.55469 22.6641 5.72461 23.9824 6.06445 25.1426C6.41602 26.3027 6.91406 27.293 7.55859 28.1133C8.20312 28.9219 8.9707 29.5371 9.86133 29.959C10.7637 30.3809 11.7598 30.5918 12.8496 30.5918C14.0566 30.5918 15.0352 30.4922 15.7852 30.293C16.5352 30.082 17.1211 29.8359 17.543 29.5547C17.9648 29.2617 18.2871 28.9863 18.5098 28.7285V22.998H12.5859V20.2559H21.8848ZM30.2695 16.9688V33H27.0176V13.9805H30.1816L30.2695 16.9688ZM36.2109 13.875L36.1934 16.8984C35.9238 16.8398 35.666 16.8047 35.4199 16.793C35.1855 16.7695 34.916 16.7578 34.6113 16.7578C33.8613 16.7578 33.1992 16.875 32.625 17.1094C32.0508 17.3438 31.5645 17.6719 31.166 18.0938C30.7676 18.5156 30.4512 19.0195 30.2168 19.6055C29.9941 20.1797 29.8477 20.8125 29.7773 21.5039L28.8633 22.0312C28.8633 20.8828 28.9746 19.8047 29.1973 18.7969C29.4316 17.7891 29.7891 16.8984 30.2695 16.125C30.75 15.3398 31.3594 14.7305 32.0977 14.2969C32.8477 13.8516 33.7383 13.6289 34.7695 13.6289C35.0039 13.6289 35.2734 13.6582 35.5781 13.7168C35.8828 13.7637 36.0938 13.8164 36.2109 13.875ZM46.7578 33.3516C45.4336 33.3516 44.2324 33.1289 43.1543 32.6836C42.0879 32.2266 41.168 31.5879 40.3945 30.7676C39.6328 29.9473 39.0469 28.9746 38.6367 27.8496C38.2266 26.7246 38.0215 25.4941 38.0215 24.1582V23.4199C38.0215 21.873 38.25 20.4961 38.707 19.2891C39.1641 18.0703 39.7852 17.0391 40.5703 16.1953C41.3555 15.3516 42.2461 14.7129 43.2422 14.2793C44.2383 13.8457 45.2695 13.6289 46.3359 13.6289C47.6953 13.6289 48.8672 13.8633 49.8516 14.332C50.8477 14.8008 51.6621 15.457 52.2949 16.3008C52.9277 17.1328 53.3965 18.1172 53.7012 19.2539C54.0059 20.3789 54.1582 21.6094 54.1582 22.9453V24.4043H39.9551V21.75H50.9062V21.5039C50.8594 20.6602 50.6836 19.8398 50.3789 19.043C50.0859 18.2461 49.6172 17.5898 48.9727 17.0742C48.3281 16.5586 47.4492 16.3008 46.3359 16.3008C45.5977 16.3008 44.918 16.459 44.2969 16.7754C43.6758 17.0801 43.1426 17.5371 42.6973 18.1465C42.252 18.7559 41.9062 19.5 41.6602 20.3789C41.4141 21.2578 41.291 22.2715 41.291 23.4199V24.1582C41.291 25.0605 41.4141 25.9102 41.6602 26.707C41.918 27.4922 42.2871 28.1836 42.7676 28.7812C43.2598 29.3789 43.8516 29.8477 44.543 30.1875C45.2461 30.5273 46.043 30.6973 46.9336 30.6973C48.082 30.6973 49.0547 30.4629 49.8516 29.9941C50.6484 29.5254 51.3457 28.8984 51.9434 28.1133L53.9121 29.6777C53.502 30.2988 52.9805 30.8906 52.3477 31.4531C51.7148 32.0156 50.9355 32.4727 50.0098 32.8242C49.0957 33.1758 48.0117 33.3516 46.7578 33.3516ZM65.8477 33.3516C64.5234 33.3516 63.3223 33.1289 62.2441 32.6836C61.1777 32.2266 60.2578 31.5879 59.4844 30.7676C58.7227 29.9473 58.1367 28.9746 57.7266 27.8496C57.3164 26.7246 57.1113 25.4941 57.1113 24.1582V23.4199C57.1113 21.873 57.3398 20.4961 57.7969 19.2891C58.2539 18.0703 58.875 17.0391 59.6602 16.1953C60.4453 15.3516 61.3359 14.7129 62.332 14.2793C63.3281 13.8457 64.3594 13.6289 65.4258 13.6289C66.7852 13.6289 67.957 13.8633 68.9414 14.332C69.9375 14.8008 70.752 15.457 71.3848 16.3008C72.0176 17.1328 72.4863 18.1172 72.791 19.2539C73.0957 20.3789 73.248 21.6094 73.248 22.9453V24.4043H59.0449V21.75H69.9961V21.5039C69.9492 20.6602 69.7734 19.8398 69.4688 19.043C69.1758 18.2461 68.707 17.5898 68.0625 17.0742C67.418 16.5586 66.5391 16.3008 65.4258 16.3008C64.6875 16.3008 64.0078 16.459 63.3867 16.7754C62.7656 17.0801 62.2324 17.5371 61.7871 18.1465C61.3418 18.7559 60.9961 19.5 60.75 20.3789C60.5039 21.2578 60.3809 22.2715 60.3809 23.4199V24.1582C60.3809 25.0605 60.5039 25.9102 60.75 26.707C61.0078 27.4922 61.377 28.1836 61.8574 28.7812C62.3496 29.3789 62.9414 29.8477 63.6328 30.1875C64.3359 30.5273 65.1328 30.6973 66.0234 30.6973C67.1719 30.6973 68.1445 30.4629 68.9414 29.9941C69.7383 29.5254 70.4355 28.8984 71.0332 28.1133L73.002 29.6777C72.5918 30.2988 72.0703 30.8906 71.4375 31.4531C70.8047 32.0156 70.0254 32.4727 69.0996 32.8242C68.1855 33.1758 67.1016 33.3516 65.8477 33.3516ZM80.2969 18.041V33H77.0449V13.9805H80.1211L80.2969 18.041ZM79.5234 22.7695L78.1699 22.7168C78.1816 21.416 78.375 20.2148 78.75 19.1133C79.125 18 79.6523 17.0332 80.332 16.2129C81.0117 15.3926 81.8203 14.7598 82.7578 14.3145C83.707 13.8574 84.7559 13.6289 85.9043 13.6289C86.8418 13.6289 87.6855 13.7578 88.4355 14.0156C89.1855 14.2617 89.8242 14.6602 90.3516 15.2109C90.8906 15.7617 91.3008 16.4766 91.582 17.3555C91.8633 18.2227 92.0039 19.2832 92.0039 20.5371V33H88.7344V20.502C88.7344 19.5059 88.5879 18.709 88.2949 18.1113C88.002 17.502 87.5742 17.0625 87.0117 16.793C86.4492 16.5117 85.7578 16.3711 84.9375 16.3711C84.1289 16.3711 83.3906 16.541 82.7227 16.8809C82.0664 17.2207 81.498 17.6895 81.0176 18.2871C80.5488 18.8848 80.1797 19.5703 79.9102 20.3438C79.6523 21.1055 79.5234 21.9141 79.5234 22.7695ZM110.725 33H107.473V11.9766C107.473 10.6055 107.719 9.45117 108.211 8.51367C108.715 7.56445 109.436 6.84961 110.373 6.36914C111.311 5.87695 112.424 5.63086 113.713 5.63086C114.088 5.63086 114.463 5.6543 114.838 5.70117C115.225 5.74805 115.6 5.81836 115.963 5.91211L115.787 8.56641C115.541 8.50781 115.26 8.4668 114.943 8.44336C114.639 8.41992 114.334 8.4082 114.029 8.4082C113.338 8.4082 112.74 8.54883 112.236 8.83008C111.744 9.09961 111.369 9.49805 111.111 10.0254C110.854 10.5527 110.725 11.2031 110.725 11.9766V33ZM114.768 13.9805V16.4766H104.467V13.9805H114.768ZM117.527 23.7012V23.2969C117.527 21.9258 117.727 20.6543 118.125 19.4824C118.523 18.2988 119.098 17.2734 119.848 16.4062C120.598 15.5273 121.506 14.8477 122.572 14.3672C123.639 13.875 124.834 13.6289 126.158 13.6289C127.494 13.6289 128.695 13.875 129.762 14.3672C130.84 14.8477 131.754 15.5273 132.504 16.4062C133.266 17.2734 133.846 18.2988 134.244 19.4824C134.643 20.6543 134.842 21.9258 134.842 23.2969V23.7012C134.842 25.0723 134.643 26.3438 134.244 27.5156C133.846 28.6875 133.266 29.7129 132.504 30.5918C131.754 31.459 130.846 32.1387 129.779 32.6309C128.725 33.1113 127.529 33.3516 126.193 33.3516C124.857 33.3516 123.656 33.1113 122.59 32.6309C121.523 32.1387 120.609 31.459 119.848 30.5918C119.098 29.7129 118.523 28.6875 118.125 27.5156C117.727 26.3438 117.527 25.0723 117.527 23.7012ZM120.779 23.2969V23.7012C120.779 24.6504 120.891 25.5469 121.113 26.3906C121.336 27.2227 121.67 27.9609 122.115 28.6055C122.572 29.25 123.141 29.7598 123.82 30.1348C124.5 30.498 125.291 30.6797 126.193 30.6797C127.084 30.6797 127.863 30.498 128.531 30.1348C129.211 29.7598 129.773 29.25 130.219 28.6055C130.664 27.9609 130.998 27.2227 131.221 26.3906C131.455 25.5469 131.572 24.6504 131.572 23.7012V23.2969C131.572 22.3594 131.455 21.4746 131.221 20.6426C130.998 19.7988 130.658 19.0547 130.201 18.4102C129.756 17.7539 129.193 17.2383 128.514 16.8633C127.846 16.4883 127.061 16.3008 126.158 16.3008C125.268 16.3008 124.482 16.4883 123.803 16.8633C123.135 17.2383 122.572 17.7539 122.115 18.4102C121.67 19.0547 121.336 19.7988 121.113 20.6426C120.891 21.4746 120.779 22.3594 120.779 23.2969ZM142.172 16.9688V33H138.92V13.9805H142.084L142.172 16.9688ZM148.113 13.875L148.096 16.8984C147.826 16.8398 147.568 16.8047 147.322 16.793C147.088 16.7695 146.818 16.7578 146.514 16.7578C145.764 16.7578 145.102 16.875 144.527 17.1094C143.953 17.3438 143.467 17.6719 143.068 18.0938C142.67 18.5156 142.354 19.0195 142.119 19.6055C141.896 20.1797 141.75 20.8125 141.68 21.5039L140.766 22.0312C140.766 20.8828 140.877 19.8047 141.1 18.7969C141.334 17.7891 141.691 16.8984 142.172 16.125C142.652 15.3398 143.262 14.7305 144 14.2969C144.75 13.8516 145.641 13.6289 146.672 13.6289C146.906 13.6289 147.176 13.6582 147.48 13.7168C147.785 13.7637 147.996 13.8164 148.113 13.875ZM163.582 6V33H160.312V6H163.582ZM172.336 13.9805V33H169.066V13.9805H172.336ZM168.82 8.93555C168.82 8.4082 168.979 7.96289 169.295 7.59961C169.623 7.23633 170.104 7.05469 170.736 7.05469C171.357 7.05469 171.832 7.23633 172.16 7.59961C172.5 7.96289 172.67 8.4082 172.67 8.93555C172.67 9.43945 172.5 9.87305 172.16 10.2363C171.832 10.5879 171.357 10.7637 170.736 10.7637C170.104 10.7637 169.623 10.5879 169.295 10.2363C168.979 9.87305 168.82 9.43945 168.82 8.93555ZM182.408 33H179.156V11.9766C179.156 10.6055 179.402 9.45117 179.895 8.51367C180.398 7.56445 181.119 6.84961 182.057 6.36914C182.994 5.87695 184.107 5.63086 185.396 5.63086C185.771 5.63086 186.146 5.6543 186.521 5.70117C186.908 5.74805 187.283 5.81836 187.646 5.91211L187.471 8.56641C187.225 8.50781 186.943 8.4668 186.627 8.44336C186.322 8.41992 186.018 8.4082 185.713 8.4082C185.021 8.4082 184.424 8.54883 183.92 8.83008C183.428 9.09961 183.053 9.49805 182.795 10.0254C182.537 10.5527 182.408 11.2031 182.408 11.9766V33ZM186.451 13.9805V16.4766H176.15V13.9805H186.451ZM197.543 33.3516C196.219 33.3516 195.018 33.1289 193.939 32.6836C192.873 32.2266 191.953 31.5879 191.18 30.7676C190.418 29.9473 189.832 28.9746 189.422 27.8496C189.012 26.7246 188.807 25.4941 188.807 24.1582V23.4199C188.807 21.873 189.035 20.4961 189.492 19.2891C189.949 18.0703 190.57 17.0391 191.355 16.1953C192.141 15.3516 193.031 14.7129 194.027 14.2793C195.023 13.8457 196.055 13.6289 197.121 13.6289C198.48 13.6289 199.652 13.8633 200.637 14.332C201.633 14.8008 202.447 15.457 203.08 16.3008C203.713 17.1328 204.182 18.1172 204.486 19.2539C204.791 20.3789 204.943 21.6094 204.943 22.9453V24.4043H190.74V21.75H201.691V21.5039C201.645 20.6602 201.469 19.8398 201.164 19.043C200.871 18.2461 200.402 17.5898 199.758 17.0742C199.113 16.5586 198.234 16.3008 197.121 16.3008C196.383 16.3008 195.703 16.459 195.082 16.7754C194.461 17.0801 193.928 17.5371 193.482 18.1465C193.037 18.7559 192.691 19.5 192.445 20.3789C192.199 21.2578 192.076 22.2715 192.076 23.4199V24.1582C192.076 25.0605 192.199 25.9102 192.445 26.707C192.703 27.4922 193.072 28.1836 193.553 28.7812C194.045 29.3789 194.637 29.8477 195.328 30.1875C196.031 30.5273 196.828 30.6973 197.719 30.6973C198.867 30.6973 199.84 30.4629 200.637 29.9941C201.434 29.5254 202.131 28.8984 202.729 28.1133L204.697 29.6777C204.287 30.2988 203.766 30.8906 203.133 31.4531C202.5 32.0156 201.721 32.4727 200.795 32.8242C199.881 33.1758 198.797 33.3516 197.543 33.3516Z" fill="url(#paint0_linear_2_133)"/>
<circle cx="218" cy="28" r="6" fill="#254D0D"/>
<defs>
<linearGradient id="paint0_linear_2_133" x1="152.5" y1="0" x2="152.5" y2="42" gradientUnits="userSpaceOnUse">
<stop stop-color="#254D0D"/>
<stop offset="1" stop-color="#BFD05F" stop-opacity="0.63"/>
</linearGradient>
</defs>
</svg>
